<svg width="24" height="25" viewBox="0 0 24 25" fill="none" xmlns="http://www.w3.org/2000/svg">
<path fill-rule="evenodd" clip-rule="evenodd" d="M12 13.3719C8.685 13.3719 6 10.6869 6 7.37195C6 4.05695 8.685 1.37195 12 1.37195C15.315 1.37195 18 4.05695 18 7.37195C18 10.6869 15.315 13.3719 12 13.3719ZM16 7.37195C16 9.58195 14.21 11.3719 12 11.3719C9.79 11.3719 8 9.58195 8 7.37195C8 5.16195 9.79 3.37195 12 3.37195C14.21 3.37195 16 5.16195 16 7.37195Z" fill="#000091"/>
<path d="M4 22.3719C4 17.9537 7.58172 14.3719 12 14.3719C16.4183 14.3719 20 17.9537 20 22.3719H18C18 19.0582 15.3137 16.3719 12 16.3719C8.68629 16.3719 6 19.0582 6 22.3719H4Z" fill="#000091"/>
</svg>
